<svg xmlns="http://www.w3.org/2000/svg" xmlns:xlink="http://www.w3.org/1999/xlink" width="1080" zoomAndPan="magnify"
    viewBox="0 0 810 809.999993" height="1080" preserveAspectRatio="xMidYMid meet" version="1.0">
    <defs>
        <clipPath id="513a6db4ce">
            <path d="M 185 185 L 625 185 L 625 625 L 185 625 Z M 185 185 " clip-rule="nonzero" />
        </clipPath>
        <clipPath id="5307577bfc">
            <path
                d="M 230.347656 636.011719 L 173.984375 579.644531 L 579.769531 173.859375 L 636.132812 230.222656 Z M 230.347656 636.011719 "
                clip-rule="nonzero" />
        </clipPath>
        <clipPath id="ff126889f3">
            <path
                d="M 210.726562 616.386719 L 193.605469 599.265625 C 182.769531 588.429688 182.769531 570.859375 193.605469 560.023438 L 560.023438 193.605469 C 570.859375 182.769531 588.429688 182.769531 599.265625 193.605469 L 616.386719 210.726562 C 627.226562 221.5625 627.226562 239.132812 616.386719 249.96875 L 249.96875 616.386719 C 239.132812 627.226562 221.5625 627.226562 210.726562 616.386719 Z M 210.726562 616.386719 "
                clip-rule="nonzero" />
        </clipPath>
        <clipPath id="65948e05b8">
            <path
                d="M 118.152344 365.140625 L 692 365.140625 L 692 444.851562 L 118.152344 444.851562 Z M 118.152344 365.140625 "
                clip-rule="nonzero" />
        </clipPath>
        <clipPath id="01c6f91124">
            <path
                d="M 118.152344 417.101562 L 118.152344 392.890625 C 118.152344 377.566406 130.578125 365.140625 145.902344 365.140625 L 664.09375 365.140625 C 679.421875 365.140625 691.84375 377.566406 691.84375 392.890625 L 691.84375 417.101562 C 691.84375 432.429688 679.421875 444.851562 664.09375 444.851562 L 145.902344 444.851562 C 130.578125 444.851562 118.152344 432.429688 118.152344 417.101562 Z M 118.152344 417.101562 "
                clip-rule="nonzero" />
        </clipPath>
        <clipPath id="519cd29761">
            <path d="M 177 189 L 625 189 L 625 621 L 177 621 Z M 177 189 " clip-rule="nonzero" />
        </clipPath>
        <clipPath id="d4f5d5e4e8">
            <path
                d="M 165.96875 235.78125 L 221.003906 178.117188 L 636.140625 574.335938 L 581.105469 632 Z M 165.96875 235.78125 "
                clip-rule="nonzero" />
        </clipPath>
        <clipPath id="c5f1cc6e5d">
            <path
                d="M 185.128906 215.707031 L 201.84375 198.191406 C 212.425781 187.105469 229.992188 186.695312 241.078125 197.277344 L 615.941406 555.054688 C 627.027344 565.636719 627.4375 583.203125 616.855469 594.289062 L 600.136719 611.804688 C 589.554688 622.890625 571.988281 623.300781 560.902344 612.71875 L 186.042969 254.941406 C 174.957031 244.359375 174.546875 226.792969 185.128906 215.707031 Z M 185.128906 215.707031 "
                clip-rule="nonzero" />
        </clipPath>
        <clipPath id="965afc256f">
            <path
                d="M 365.144531 118.152344 L 444.855469 118.152344 L 444.855469 692 L 365.144531 692 Z M 365.144531 118.152344 "
                clip-rule="nonzero" />
        </clipPath>
        <clipPath id="3c2a2416b7">
            <path
                d="M 392.894531 118.152344 L 417.105469 118.152344 C 432.433594 118.152344 444.855469 130.578125 444.855469 145.902344 L 444.855469 664.097656 C 444.855469 679.421875 432.433594 691.847656 417.105469 691.847656 L 392.894531 691.847656 C 377.566406 691.847656 365.144531 679.421875 365.144531 664.097656 L 365.144531 145.902344 C 365.144531 130.578125 377.566406 118.152344 392.894531 118.152344 Z M 392.894531 118.152344 "
                clip-rule="nonzero" />
        </clipPath>
    </defs>
    <g clip-path="url(#513a6db4ce)">
        <g clip-path="url(#5307577bfc)">
            <g clip-path="url(#ff126889f3)">
                <path fill="#0da042"
                    d="M 230.347656 636.011719 L 173.984375 579.644531 L 579.546875 174.078125 L 635.914062 230.445312 Z M 230.347656 636.011719 "
                    fill-opacity="1" fill-rule="nonzero" />
            </g>
        </g>
    </g>
    <g clip-path="url(#65948e05b8)">
        <g clip-path="url(#01c6f91124)">
            <path fill="#0da042"
                d="M 118.152344 444.851562 L 118.152344 365.140625 L 691.707031 365.140625 L 691.707031 444.851562 Z M 118.152344 444.851562 "
                fill-opacity="1" fill-rule="nonzero" />
        </g>
    </g>
    <g clip-path="url(#519cd29761)">
        <g clip-path="url(#d4f5d5e4e8)">
            <g clip-path="url(#c5f1cc6e5d)">
                <path fill="#0da042"
                    d="M 165.96875 235.78125 L 221.003906 178.117188 L 635.914062 574.121094 L 580.878906 631.785156 Z M 165.96875 235.78125 "
                    fill-opacity="1" fill-rule="nonzero" />
            </g>
        </g>
    </g>
    <g clip-path="url(#965afc256f)">
        <g clip-path="url(#3c2a2416b7)">
            <path fill="#0da042"
                d="M 365.144531 118.152344 L 444.855469 118.152344 L 444.855469 691.710938 L 365.144531 691.710938 Z M 365.144531 118.152344 "
                fill-opacity="1" fill-rule="nonzero" />
        </g>
    </g>
</svg>